<?xml version="1.0" encoding="UTF-8" standalone="no"?>
<svg
   xmlns:dc="http://purl.org/dc/elements/1.1/"
   xmlns:cc="http://creativecommons.org/ns#"
   xmlns:rdf="http://www.w3.org/1999/02/22-rdf-syntax-ns#"
   xmlns:svg="http://www.w3.org/2000/svg"
   xmlns="http://www.w3.org/2000/svg"
   xmlns:sodipodi="http://sodipodi.sourceforge.net/DTD/sodipodi-0.dtd"
   xmlns:inkscape="http://www.inkscape.org/namespaces/inkscape"
   width="24"
   height="24"
   viewBox="0 0 24 24"
   version="1.1"
   id="svg10498"
   sodipodi:docname="compass.svg"
   inkscape:version="0.92.3 (2405546, 2018-03-11)">
  <metadata
     id="metadata10504">
    <rdf:RDF>
      <cc:Work
         rdf:about="">
        <dc:format>image/svg+xml</dc:format>
        <dc:type
           rdf:resource="http://purl.org/dc/dcmitype/StillImage" />
        <dc:title></dc:title>
      </cc:Work>
    </rdf:RDF>
  </metadata>
  <defs
     id="defs10502" />
  <sodipodi:namedview
     pagecolor="#ffffff"
     bordercolor="#666666"
     borderopacity="1"
     objecttolerance="10"
     gridtolerance="10"
     guidetolerance="10"
     inkscape:pageopacity="0"
     inkscape:pageshadow="2"
     inkscape:window-width="1920"
     inkscape:window-height="1021"
     id="namedview10500"
     showgrid="false"
     inkscape:zoom="9.8333333"
     inkscape:cx="-0.86440678"
     inkscape:cy="12"
     inkscape:window-x="0"
     inkscape:window-y="27"
     inkscape:window-maximized="1"
     inkscape:current-layer="svg10498" />
  <path
     d="M12 2c5.514 0 10 4.486 10 10s-4.486 10-10 10-10-4.486-10-10 4.486-10 10-10zm0-2c-6.627 0-12 5.373-12 12s5.373 12 12 12 12-5.373 12-12-5.373-12-12-12zm6 5.999l-5.621 2.986c-.899-.104-1.806.191-2.474.859-.662.663-.95 1.561-.862 2.428l-3.043 5.728 5.724-3.042c.884.089 1.772-.205 2.432-.865.634-.634.969-1.524.859-2.473l2.985-5.621zm-5.97 7.22c-.689 0-1.25-.559-1.25-1.249-.001-.691.559-1.251 1.25-1.25.69 0 1.25.56 1.25 1.25-.001.689-.56 1.249-1.25 1.249zm-.03 5.781c-.553 0-1 .448-1 1s.447 1 1 1 1-.448 1-1-.447-1-1-1zm-8-8c-.553 0-1 .448-1 1s.447 1 1 1 1-.448 1-1-.447-1-1-1zm8-8c-.553 0-1 .448-1 1s.447 1 1 1 1-.448 1-1-.447-1-1-1zm8 8c-.553 0-1 .448-1 1s.447 1 1 1 1-.448 1-1-.447-1-1-1z"
     id="path10496"
     style="fill:#ffffff" />
</svg>
